<svg id="objects" height="20" width="20" viewBox="0 0 512 512" xmlns="http://www.w3.org/2000/svg">
<path id="objects" d="m423.722656 123.585938h52.96875c10.011719.3125 17.894532 8.648437 17.652344 18.660156v307.960937h-476.6875v-307.960937c-.242188-10.011719 7.640625-18.347656 17.652344-18.660156zm0 0" fill="#7f8c8d"/>
<path id="objects" d="m449.148438 158.898438c-211.332032 54.816406-349.484376 191.558593-396.183594 243.90625v-235.082032c0-4.875 3.953125-8.824218 8.828125-8.824218zm0 0" fill="#464f5d"/>
<path id="objects" d="m449.148438 158.898438c-211.332032 54.816406-349.484376 191.558593-396.183594 243.90625v-235.082032c0-4.875 3.953125-8.824218 8.828125-8.824218zm0 0" fill="#b0d3f0"/>
<path id="objects" d="m459.035156 167.722656v273.65625h-406.070312v-38.574218c46.699218-52.347657 184.851562-189.089844 396.183594-243.90625h1.058593c4.875 0 8.828125 3.949218 8.828125 8.824218zm0 0" fill="#90bae1"/>
<path id="objects" d="m8.828125 432.550781h494.34375c4.875 0 8.828125 3.953125 8.828125 8.828125v35.3125c0 19.5-15.808594 35.308594-35.308594 35.308594h-441.382812c-19.5 0-35.308594-15.808594-35.308594-35.308594v-35.3125c0-4.875 3.953125-8.828125 8.828125-8.828125zm0 0" fill="#3f5c6c"/>
<path id="objects" d="m315.710938 467.863281h-119.421876c-6.6875 0-12.800781-3.78125-15.792968-9.765625l-12.773438-25.546875h176.554688l-12.773438 25.546875c-2.992187 5.984375-9.105468 9.765625-15.792968 9.765625zm0 0" fill="#84b5cb"/>
<g id="objects" fill="#95a5a5">
<path id="objects" d="m0 476.691406h105.929688c4.875 0 8.828124-3.953125 8.828124-8.828125s-3.953124-8.828125-8.828124-8.828125h-105.929688zm0 0"/>
<path id="objects" d="m150.070312 476.691406h-8.828124c-4.875 0-8.828126-3.953125-8.828126-8.828125s3.953126-8.828125 8.828126-8.828125h8.828124c4.875 0 8.828126 3.953125 8.828126 8.828125s-3.953126 8.828125-8.828126 8.828125zm0 0"/>
<path id="objects" d="m512 476.691406h-105.929688c-4.875 0-8.828124-3.953125-8.828124-8.828125s3.953124-8.828125 8.828124-8.828125h105.929688zm0 0"/>
<path id="objects" d="m370.757812 476.691406h-8.828124c-4.875 0-8.828126-3.953125-8.828126-8.828125s3.953126-8.828125 8.828126-8.828125h8.828124c4.875 0 8.828126 3.953125 8.828126 8.828125s-3.953126 8.828125-8.828126 8.828125zm0 0"/></g>
<path id="objects" d="m141.242188 150.070312h35.308593v176.550782h-35.308593zm0 0" fill="#2c3e50"/>
<path id="objects" d="m335.449219 150.070312h35.308593v176.550782h-35.308593zm0 0" fill="#2c3e50"/>
<path id="objects" d="m238.34375 150.070312h35.3125v176.550782h-35.3125zm0 0" fill="#2c3e50"/>
<path id="objects" d="m406.070312 52.964844-65.917968-49.433594c-3.054688-2.292969-6.773438-3.53125-10.59375-3.53125h-147.117188c-3.820312 0-7.539062 1.238281-10.59375 3.53125l-65.917968 49.433594zm0 0" fill="#2c3e50"/>
<path id="objects" d="m105.929688 52.964844h300.140624v26.484375c0 4.875-3.953124 8.828125-8.828124 8.828125h-282.484376c-4.875 0-8.828124-3.953125-8.828124-8.828125zm0 0" fill="#3f5c6c"/>
<path id="objects" d="m123.585938 317.792969h264.828124c4.875 0 8.828126 3.953125 8.828126 8.828125v35.308594h-282.484376v-35.308594c0-4.875 3.953126-8.828125 8.828126-8.828125zm0 0" fill="#547580"/>
<path id="objects" d="m132.414062 114.757812h52.964844v44.140626h-52.964844zm0 0" fill="#3f5c6c"/>
<path id="objects" d="m229.515625 114.757812h52.96875v44.140626h-52.96875zm0 0" fill="#3f5c6c"/>
<path id="objects" d="m326.621094 114.757812h52.964844v44.140626h-52.964844zm0 0" fill="#3f5c6c"/>
<path id="objects" d="m105.929688 353.101562h300.140624c9.75 0 17.652344 7.90625 17.652344 17.65625v17.65625h-335.445312v-17.65625c0-9.75 7.902344-17.65625 17.652344-17.65625zm0 0" fill="#2c3e50"/>
<path id="objects" d="m123.585938 88.277344h264.828124v26.480468c0 4.875-3.953124 8.828126-8.828124 8.828126h-247.171876c-4.875 0-8.828124-3.953126-8.828124-8.828126zm0 0" fill="#547580"/></svg>