<svg xmlns="http://www.w3.org/2000/svg" xmlns:xlink="http://www.w3.org/1999/xlink" id="transport" width="20" height="20" enable-background="new 0 0 512 512" version="1.1" viewBox="0 0 512 512" xml:space="preserve"><g><path id="transport" fill="#CC4B4C" d="M97.103,0h317.793c19.501,0,35.31,15.809,35.31,35.31v79.448H61.793V35.31C61.793,15.809,77.602,0,97.103,0z"/><path id="transport" fill="#802F34" d="M150.069,35.31h211.862c9.751,0,17.655,7.904,17.655,17.655v26.483H132.414V52.966C132.414,43.215,140.318,35.31,150.069,35.31z"/><path id="transport" fill="#CC4B4C" d="M61.793,247.172v150.069l23.574,48.019c1.491,3.03,4.575,4.949,7.953,4.947h325.36c3.377,0.002,6.462-1.916,7.953-4.947l23.574-48.019V247.172H61.793z"/><path id="transport" fill="#802F34" d="M450.207,397.241l-23.574,48.019c-1.491,3.03-4.576,4.949-7.953,4.947H93.32c-3.377,0.002-6.462-1.916-7.953-4.947l-23.574-48.019H450.207z"/><g><path id="transport" fill="#5E5F62" d="M97.103,450.207h70.621v44.138c0,9.751-7.904,17.655-17.655,17.655h-35.31c-9.751,0-17.655-7.905-17.655-17.655V450.207z"/><path id="transport" fill="#5E5F62" d="M344.276,450.207h70.621v44.138c0,9.751-7.904,17.655-17.655,17.655h-35.31c-9.751,0-17.655-7.905-17.655-17.655V450.207z"/></g><path id="transport" fill="#F0C419" d="M167.724,344.276c-0.071,9.721-7.934,17.585-17.655,17.655H97.103v-35.31h52.966C159.808,326.649,167.696,334.537,167.724,344.276z"/><rect id="transport" width="35.31" height="35.31" x="414.897" y="326.621" fill="#F29C1F"/><path id="transport" fill="#F0C419" d="M344.276,344.276c0.071,9.721,7.934,17.585,17.655,17.655h52.966v-35.31h-52.966C352.192,326.649,344.304,334.537,344.276,344.276z"/><g><rect id="transport" width="61.793" height="61.793" x="432.552" y="132.414" fill="#BDC3C7"/><rect id="transport" width="61.793" height="61.793" x="17.655" y="132.414" fill="#BDC3C7"/></g><rect id="transport" width="388.414" height="203.034" x="61.793" y="79.448" fill="#84B5CB"/><g><path id="transport" fill="#5E5F62" d="M8.828,114.759h17.655c4.875,0,8.828,3.952,8.828,8.828v79.448c0,4.875-3.952,8.828-8.828,8.828H8.828c-4.875,0-8.828-3.952-8.828-8.828v-79.448C0,118.711,3.952,114.759,8.828,114.759z"/><path id="transport" fill="#5E5F62" d="M503.172,211.862h-17.655c-4.875,0-8.828-3.952-8.828-8.828v-79.448c0-4.875,3.952-8.828,8.828-8.828h17.655c4.875,0,8.828,3.952,8.828,8.828v79.448C512,207.91,508.048,211.862,503.172,211.862z"/></g><rect id="transport" width="35.31" height="35.31" x="61.793" y="326.621" fill="#F29C1F"/><g><path id="transport" fill="#FFF" d="M370.759,123.586h-44.138c-4.875,0-8.828-3.952-8.828-8.828s3.952-8.828,8.828-8.828h44.138c4.875,0,8.828,3.952,8.828,8.828S375.634,123.586,370.759,123.586z"/><path id="transport" fill="#FFF" d="M414.897,123.586h-8.828c-4.875,0-8.828-3.952-8.828-8.828s3.952-8.828,8.828-8.828h8.828c4.875,0,8.828,3.952,8.828,8.828S419.772,123.586,414.897,123.586z"/></g></g></svg>